<svg aria-hidden="true" style="position:absolute;width:0;height:0;overflow:hidden" xmlns="http://www.w3.org/2000/svg">
  <defs>
    <symbol id="plus" viewBox="0 0 32 32">
      <path d="M32 14.476v3.048H17.6v13.714h-3.2V17.524H0v-3.048h14.4V.762h3.2v13.714z"/>
    </symbol>
    <symbol id="delete" viewBox="0 0 32 32">
      <path d="M11.2 25.143v-12.19h3.2v12.19h-3.2zm6.4 0v-12.19h3.2v12.19h-3.2zM8 28.19V9.904h16V28.19H8zm3.2-21.333V3.809h9.6v3.048h-9.6zm12.8 0V.762H8v6.095H0v3.048h4.8v21.333h22.4V9.905H32V6.857h-8z"/>
    </symbol>
    <symbol id="edit" viewBox="0 0 32 32">
      <path d="M25.205 11.822a.789.789 0 0 0-.789.789v14.416a2.767 2.767 0 0 1-2.763 2.763H4.342a2.767 2.767 0 0 1-2.763-2.763V9.716a2.767 2.767 0 0 1 2.763-2.763h17.311a.789.789 0 1 0 0-1.578H4.342A4.347 4.347 0 0 0 0 9.717v17.311a4.347 4.347 0 0 0 4.342 4.342h17.311a4.347 4.347 0 0 0 4.342-4.342V12.612a.79.79 0 0 0-.789-.79z"/>
      <path d="M31.285 1.344a2.443 2.443 0 0 0-3.451 0L14.312 14.867c-.018.018-.222.23-.275.349l-1.873 4.207a.789.789 0 0 0 1.043 1.042l4.207-1.873c.118-.053.331-.257.349-.275L31.286 4.795c.461-.461.715-1.074.715-1.726s-.254-1.265-.715-1.725zm-1.116 2.335L16.646 17.202l-.006.007-2.198.978.978-2.197.007-.006L28.949 2.461a.882.882 0 0 1 1.218 0c.163.162.252.379.252.609s-.09.446-.253.609z"/>
    </symbol>
    <symbol id="back" viewBox="0 0 32 32">
      <path d="M14 24.238V32L2 20 14 8v7.932C27.961 16.259 27.362 6.439 23.808 0 32.58 9.482 30.717 24.674 14 24.238z"/>
    </symbol>
  </defs>
</svg>